<?xml version="1.0" encoding="UTF-8"?>
<!DOCTYPE svg PUBLIC "-//W3C//DTD SVG 1.1//EN" "http://www.w3.org/Graphics/SVG/1.1/DTD/svg11.dtd">
<svg xmlns="http://www.w3.org/2000/svg" version="1.1" width="2000px" height="1247px" style="shape-rendering:geometricPrecision; text-rendering:geometricPrecision; image-rendering:optimizeQuality; fill-rule:evenodd; clip-rule:evenodd" xmlns:xlink="http://www.w3.org/1999/xlink">
<g><path style="opacity:0.974" fill="#ffbc38" d="M 1062.5,173.5 C 1362.5,173.5 1662.5,173.5 1962.5,173.5C 1962.5,473.167 1962.5,772.833 1962.5,1072.5C 1662.5,1072.5 1362.5,1072.5 1062.5,1072.5C 1062.5,968.167 1062.5,863.833 1062.5,759.5C 1069.17,759.5 1075.83,759.5 1082.5,759.5C 1082.5,857.167 1082.5,954.833 1082.5,1052.5C 1369.17,1052.5 1655.83,1052.5 1942.5,1052.5C 1942.5,766.167 1942.5,479.833 1942.5,193.5C 1655.83,193.5 1369.17,193.5 1082.5,193.5C 1082.5,291.167 1082.5,388.833 1082.5,486.5C 1075.83,486.5 1069.17,486.5 1062.5,486.5C 1062.5,382.167 1062.5,277.833 1062.5,173.5 Z"/></g>
<g><path style="opacity:0.993" fill="#ffbd38" d="M 1274.5,516.5 C 1297.79,514.578 1320.46,517.412 1342.5,525C 1367.07,535.901 1382.57,554.401 1389,580.5C 1396.37,613.113 1394.37,645.113 1383,676.5C 1367.96,708.957 1342.46,726.457 1306.5,729C 1281.44,731.549 1257.11,728.549 1233.5,720C 1207.36,708.516 1191.53,688.683 1186,660.5C 1182.25,639.604 1181.58,618.604 1184,597.5C 1188.73,560.103 1208.9,535.27 1244.5,523C 1254.49,520.105 1264.49,517.938 1274.5,516.5 Z M 1277.5,560.5 C 1289.91,558.458 1301.08,561.124 1311,568.5C 1318.85,580.196 1322.85,593.196 1323,607.5C 1324.72,627.478 1323.06,647.145 1318,666.5C 1313.2,680.078 1303.53,686.745 1289,686.5C 1273.75,686.218 1263.75,678.885 1259,664.5C 1257.02,657.286 1255.69,649.953 1255,642.5C 1253.45,619.975 1254.79,597.641 1259,575.5C 1259.7,571.375 1261.54,567.875 1264.5,565C 1268.79,563.021 1273.12,561.521 1277.5,560.5 Z"/></g>
<g><path style="opacity:0.989" fill="#ffbd38" d="M 845.5,517.5 C 864.17,517.333 882.836,517.5 901.5,518C 919.697,518.438 937.03,522.438 953.5,530C 966.902,538.083 974.736,549.916 977,565.5C 977.667,574.5 977.667,583.5 977,592.5C 974.701,608.973 965.868,620.14 950.5,626C 945.452,627.209 940.452,628.542 935.5,630C 948.548,631.263 958.381,637.429 965,648.5C 972.616,673.964 979.449,699.63 985.5,725.5C 962.5,725.5 939.5,725.5 916.5,725.5C 911.399,703.5 906.233,681.5 901,659.5C 900.08,654.812 897.58,651.312 893.5,649C 883.506,648.5 873.506,648.334 863.5,648.5C 863.5,674.167 863.5,699.833 863.5,725.5C 841.5,725.5 819.5,725.5 797.5,725.5C 797.5,657.167 797.5,588.833 797.5,520.5C 813.658,519.573 829.658,518.573 845.5,517.5 Z M 876.5,557.5 C 906.187,556.021 917.353,569.687 910,598.5C 907.832,603.346 903.999,605.846 898.5,606C 886.869,607.268 875.203,607.768 863.5,607.5C 863.5,591.167 863.5,574.833 863.5,558.5C 868.032,558.818 872.366,558.485 876.5,557.5 Z"/></g>
<g><path style="opacity:0.995" fill="#ffbc38" d="M 382.5,518.5 C 421.183,518.115 459.849,518.615 498.5,520C 542.754,521.232 560.588,543.398 552,586.5C 545.55,602.501 533.717,612.001 516.5,615C 546.179,618.842 561.179,635.675 561.5,665.5C 561.473,681.284 556.973,695.617 548,708.5C 541.739,716.263 533.572,720.429 523.5,721C 513.893,722.576 504.226,723.576 494.5,724C 457.176,725.171 419.842,725.671 382.5,725.5C 382.5,656.5 382.5,587.5 382.5,518.5 Z M 454.5,557.5 C 462.517,557.668 470.517,558.168 478.5,559C 485.333,560.5 489.5,564.667 491,571.5C 493.216,581.791 491.049,590.958 484.5,599C 481.247,600.036 477.914,600.703 474.5,601C 465.506,601.5 456.506,601.666 447.5,601.5C 447.5,587.167 447.5,572.833 447.5,558.5C 450.059,558.802 452.393,558.468 454.5,557.5 Z M 447.5,634.5 C 458.172,634.333 468.839,634.5 479.5,635C 487.877,635.378 493.377,639.545 496,647.5C 499.274,657.507 499.274,667.507 496,677.5C 495.208,679.587 494.041,681.421 492.5,683C 480.403,684.9 468.237,686.067 456,686.5C 453.23,685.652 450.397,685.319 447.5,685.5C 447.5,668.5 447.5,651.5 447.5,634.5 Z"/></g>
<g><path style="opacity:0.997" fill="#ffbc38" d="M 1421.5,518.5 C 1442.18,518.167 1462.84,518.5 1483.5,519.5C 1508.26,556.764 1532.42,594.431 1556,632.5C 1556.5,594.501 1556.67,556.501 1556.5,518.5C 1576.5,518.5 1596.5,518.5 1616.5,518.5C 1616.5,587.5 1616.5,656.5 1616.5,725.5C 1595.82,725.833 1575.16,725.5 1554.5,724.5C 1530.86,687.699 1507.03,651.032 1483,614.5C 1482.5,651.498 1482.33,688.498 1482.5,725.5C 1462.17,725.5 1441.83,725.5 1421.5,725.5C 1421.5,656.5 1421.5,587.5 1421.5,518.5 Z"/></g>
<g><path style="opacity:0.995" fill="#ffbd38" d="M 631.5,518.5 C 660.167,518.5 688.833,518.5 717.5,518.5C 738.702,587.44 759.702,656.44 780.5,725.5C 758.164,725.667 735.831,725.5 713.5,725C 709.603,710.244 705.936,695.41 702.5,680.5C 682.831,680.333 663.164,680.5 643.5,681C 639.761,695.456 636.094,709.956 632.5,724.5C 610.177,725.5 587.843,725.833 565.5,725.5C 587.345,656.454 609.345,587.454 631.5,518.5 Z M 672.5,564.5 C 673.793,565.842 674.626,567.509 675,569.5C 681.012,592.549 687.179,615.549 693.5,638.5C 679.512,639.666 665.512,639.833 651.5,639C 659.042,614.332 666.042,589.498 672.5,564.5 Z"/></g>
<g><path style="opacity:0.987" fill="#ffbc39" d="M 991.5,518.5 C 1052.17,518.5 1112.83,518.5 1173.5,518.5C 1173.5,533.833 1173.5,549.167 1173.5,564.5C 1154.17,564.5 1134.83,564.5 1115.5,564.5C 1115.5,618.167 1115.5,671.833 1115.5,725.5C 1093.5,725.5 1071.5,725.5 1049.5,725.5C 1049.5,671.833 1049.5,618.167 1049.5,564.5C 1030.17,564.5 1010.83,564.5 991.5,564.5C 991.5,549.167 991.5,533.833 991.5,518.5 Z"/></g>
</svg>
